<svg width="57" height="56" viewBox="0 0 57 56" fill="none" xmlns="http://www.w3.org/2000/svg">
<path d="M46 38.5C44.764 38.506 43.5534 38.8511 42.5 39.4975L37.0925 34.0725C38.3508 32.2976 39.0266 30.1757 39.0266 28C39.0266 25.8243 38.3508 23.7024 37.0925 21.9275L42.5 16.5025C43.5534 17.1489 44.764 17.494 46 17.5C47.3845 17.5 48.7379 17.0895 49.889 16.3203C51.0401 15.5511 51.9373 14.4579 52.4672 13.1788C52.997 11.8997 53.1356 10.4922 52.8655 9.13437C52.5954 7.7765 51.9287 6.52922 50.9497 5.55026C49.9708 4.57129 48.7235 3.9046 47.3656 3.63451C46.0078 3.36441 44.6003 3.50303 43.3212 4.03285C42.0421 4.56266 40.9489 5.45987 40.1797 6.61101C39.4105 7.76216 39 9.11553 39 10.5C39.006 11.736 39.3511 12.9466 39.9975 14L34.5725 19.4075C32.7976 18.1492 30.6757 17.4734 28.5 17.4734C26.3243 17.4734 24.2024 18.1492 22.4275 19.4075L17.0025 14C17.6489 12.9466 17.994 11.736 18 10.5C18 9.11553 17.5895 7.76216 16.8203 6.61101C16.0511 5.45987 14.9579 4.56266 13.6788 4.03285C12.3997 3.50303 10.9922 3.36441 9.63437 3.63451C8.2765 3.9046 7.02922 4.57129 6.05026 5.55026C5.07129 6.52922 4.4046 7.7765 4.13451 9.13437C3.86441 10.4922 4.00303 11.8997 4.53285 13.1788C5.06266 14.4579 5.95987 15.5511 7.11101 16.3203C8.26216 17.0895 9.61553 17.5 11 17.5C12.236 17.494 13.4466 17.1489 14.5 16.5025L19.9075 21.9275C18.6492 23.7024 17.9734 25.8243 17.9734 28C17.9734 30.1757 18.6492 32.2976 19.9075 34.0725L14.5 39.4975C13.4466 38.8511 12.236 38.506 11 38.5C9.61553 38.5 8.26216 38.9105 7.11101 39.6797C5.95987 40.4489 5.06266 41.5421 4.53285 42.8212C4.00303 44.1003 3.86441 45.5078 4.13451 46.8656C4.4046 48.2235 5.07129 49.4708 6.05026 50.4497C7.02922 51.4287 8.2765 52.0954 9.63437 52.3655C10.9922 52.6356 12.3997 52.497 13.6788 51.9672C14.9579 51.4373 16.0511 50.5401 16.8203 49.389C17.5895 48.2379 18 46.8845 18 45.5C17.994 44.264 17.6489 43.0534 17.0025 42L22.4275 36.5925C24.2024 37.8508 26.3243 38.5266 28.5 38.5266C30.6757 38.5266 32.7976 37.8508 34.5725 36.5925L39.9975 42C39.3511 43.0534 39.006 44.264 39 45.5C39 46.8845 39.4105 48.2379 40.1797 49.389C40.9489 50.5401 42.0421 51.4373 43.3212 51.9672C44.6003 52.497 46.0078 52.6356 47.3656 52.3655C48.7235 52.0954 49.9708 51.4287 50.9497 50.4497C51.9287 49.4708 52.5954 48.2235 52.8655 46.8656C53.1356 45.5078 52.997 44.1003 52.4672 42.8212C51.9373 41.5421 51.0401 40.4489 49.889 39.6797C48.7379 38.9105 47.3845 38.5 46 38.5ZM46 7C46.6922 7 47.3689 7.20527 47.9445 7.58986C48.5201 7.97444 48.9687 8.52107 49.2336 9.16061C49.4985 9.80015 49.5678 10.5039 49.4328 11.1828C49.2977 11.8618 48.9644 12.4854 48.4749 12.9749C47.9854 13.4644 47.3618 13.7977 46.6828 13.9328C46.0039 14.0678 45.3002 13.9985 44.6606 13.7336C44.0211 13.4687 43.4744 13.0201 43.0899 12.4445C42.7053 11.8689 42.5 11.1922 42.5 10.5C42.5 9.57175 42.8688 8.68151 43.5251 8.02513C44.1815 7.36875 45.0717 7 46 7ZM7.5 10.5C7.5 9.80777 7.70527 9.13108 8.08986 8.55551C8.47444 7.97994 9.02107 7.53133 9.66061 7.26642C10.3002 7.00152 11.0039 6.93221 11.6828 7.06725C12.3618 7.2023 12.9854 7.53565 13.4749 8.02513C13.9644 8.51461 14.2977 9.13825 14.4328 9.81719C14.5678 10.4961 14.4985 11.1999 14.2336 11.8394C13.9687 12.4789 13.5201 13.0256 12.9445 13.4101C12.3689 13.7947 11.6922 14 11 14C10.0717 14 9.18151 13.6313 8.52513 12.9749C7.86875 12.3185 7.5 11.4283 7.5 10.5ZM11 49C10.3078 49 9.63108 48.7947 9.05551 48.4101C8.47994 48.0256 8.03133 47.4789 7.76642 46.8394C7.50152 46.1999 7.43221 45.4961 7.56725 44.8172C7.7023 44.1383 8.03565 43.5146 8.52513 43.0251C9.01461 42.5356 9.63825 42.2023 10.3172 42.0673C10.9961 41.9322 11.6999 42.0015 12.3394 42.2664C12.9789 42.5313 13.5256 42.9799 13.9101 43.5555C14.2947 44.1311 14.5 44.8078 14.5 45.5C14.5 46.4283 14.1313 47.3185 13.4749 47.9749C12.8185 48.6313 11.9283 49 11 49ZM28.5 35C27.1155 35 25.7622 34.5895 24.611 33.8203C23.4599 33.0511 22.5627 31.9579 22.0328 30.6788C21.503 29.3997 21.3644 27.9922 21.6345 26.6344C21.9046 25.2765 22.5713 24.0292 23.5503 23.0503C24.5292 22.0713 25.7765 21.4046 27.1344 21.1345C28.4922 20.8644 29.8997 21.003 31.1788 21.5328C32.4579 22.0627 33.5511 22.9599 34.3203 24.111C35.0895 25.2622 35.5 26.6155 35.5 28C35.5 29.8565 34.7625 31.637 33.4497 32.9497C32.137 34.2625 30.3565 35 28.5 35ZM46 49C45.3078 49 44.6311 48.7947 44.0555 48.4101C43.4799 48.0256 43.0313 47.4789 42.7664 46.8394C42.5015 46.1999 42.4322 45.4961 42.5673 44.8172C42.7023 44.1383 43.0356 43.5146 43.5251 43.0251C44.0146 42.5356 44.6383 42.2023 45.3172 42.0673C45.9961 41.9322 46.6999 42.0015 47.3394 42.2664C47.9789 42.5313 48.5256 42.9799 48.9101 43.5555C49.2947 44.1311 49.5 44.8078 49.5 45.5C49.5 46.4283 49.1313 47.3185 48.4749 47.9749C47.8185 48.6313 46.9283 49 46 49Z" fill="#2C29FF"/>
</svg>
