<svg width="20" height="20" viewBox="0 0 20 20" fill="none" xmlns="http://www.w3.org/2000/svg">
<path d="M9.99074 3.73245C5.26387 3.73245 1.43137 6.28058 1.43137 9.4237C1.43137 11.2218 2.68949 12.8237 4.64824 13.8662C4.36949 14.7912 3.81324 15.8143 2.73824 16.72C2.73824 16.72 5.24824 16.5537 7.02074 14.7556C7.12262 14.7806 7.22824 14.7993 7.33137 14.8218C7.23102 14.5316 7.17887 14.227 7.17699 13.92C7.17699 11.7993 9.53699 10.1387 12.552 10.1387C14.7164 10.1387 16.5382 10.9987 17.3957 12.2675C18.1257 11.43 18.5501 10.4593 18.5501 9.42183C18.5501 6.27933 14.7176 3.7312 9.99074 3.7312V3.73245ZM17.3001 13.9212C17.3001 12.1775 15.1751 10.7631 12.5501 10.7631C9.92824 10.7631 7.80137 12.1781 7.80137 13.9218C7.80137 15.6656 9.92824 17.08 12.5514 17.08C13.1314 17.08 13.6845 17.0075 14.1989 16.88C15.182 17.8787 16.5739 17.9706 16.5739 17.9706C15.9782 17.4681 15.6701 16.9 15.5151 16.3868C16.6014 15.8087 17.3001 14.9193 17.3001 13.9212Z" fill="white"/>
</svg>
