<svg width="20" height="20" viewBox="0 0 20 20" fill="none" xmlns="http://www.w3.org/2000/svg">
<path d="M6.24992 9.99998C6.25011 10.1512 6.19551 10.2973 6.09622 10.4113C5.99693 10.5253 5.85969 10.5994 5.70992 10.62L5.62492 10.6258L3.80159 10.6258L4.39992 11.2258C4.50577 11.3316 4.57012 11.4719 4.58129 11.6212C4.59245 11.7704 4.54968 11.9188 4.46075 12.0391L4.39992 12.1091C4.29399 12.2149 4.15364 12.2791 4.00439 12.2901C3.85513 12.3011 3.70688 12.2582 3.58659 12.1691L3.51658 12.1091L1.84992 10.4425L1.81992 10.4108L1.77409 10.3508L1.72825 10.2716L1.69908 10.1991L1.67742 10.1141L1.66825 10.0433L1.66825 9.95748L1.68325 9.85748L1.69992 9.80081L1.71825 9.75165L1.74742 9.69331L1.77409 9.64998L1.79242 9.62415C1.81042 9.60121 1.82961 9.57924 1.84992 9.55831L3.51659 7.89165C3.62811 7.77982 3.77783 7.71436 3.93565 7.70842C4.09347 7.70249 4.24768 7.75652 4.36729 7.85966C4.48689 7.96279 4.56301 8.10739 4.58035 8.26436C4.59769 8.42134 4.55496 8.57906 4.46075 8.70581L4.39992 8.77581L3.80075 9.37581L5.62575 9.37581C5.77664 9.37602 5.92236 9.43081 6.03601 9.53006C6.14966 9.62931 6.22356 9.76633 6.24408 9.91581L6.24992 9.99998ZM12.4999 9.99998C12.4999 10.663 12.2365 11.2989 11.7677 11.7677C11.2988 12.2366 10.663 12.5 9.99992 12.5C9.33688 12.5 8.70099 12.2366 8.23215 11.7677C7.76331 11.2989 7.49992 10.663 7.49992 9.99998C7.49992 9.33694 7.76331 8.70105 8.23215 8.23221C8.70099 7.76337 9.33688 7.49998 9.99992 7.49998C10.663 7.49998 11.2988 7.76337 11.7677 8.23221C12.2365 8.70105 12.4999 9.33694 12.4999 9.99998ZM12.1083 15.6C12.2143 15.7059 12.2788 15.8463 12.29 15.9958C12.3011 16.1452 12.2582 16.2937 12.1691 16.4141L12.1091 16.4841L10.4424 18.1508L10.4099 18.1808L10.3499 18.2266L10.2708 18.2725L10.1991 18.3016L10.1133 18.3233L10.0433 18.3316L9.95742 18.3316L9.85742 18.3175L9.80075 18.3008L9.75158 18.2825L9.69325 18.2533L9.64992 18.2266L9.61825 18.2033L9.55825 18.1508L7.89158 16.4841C7.78079 16.3725 7.71617 16.2231 7.71064 16.0659C7.7051 15.9087 7.75905 15.7552 7.86172 15.636C7.96439 15.5168 8.10822 15.4408 8.26452 15.4229C8.42081 15.4051 8.57808 15.4469 8.70492 15.54L8.77575 15.6L9.37575 16.1991L9.37575 14.375C9.37553 14.2239 9.43002 14.0779 9.52914 13.9639C9.62826 13.85 9.7653 13.7757 9.91492 13.755L9.99992 13.7508C10.1509 13.7508 10.2969 13.8055 10.4107 13.9048C10.5245 14.0041 10.5985 14.1412 10.6191 14.2908L10.6249 14.3758L10.6249 16.2L11.2249 15.6C11.3308 15.4943 11.4712 15.4301 11.6204 15.419C11.7697 15.408 11.918 15.4509 12.0383 15.54L12.1083 15.6ZM12.1083 3.51665C12.2204 3.62803 12.2861 3.77775 12.2923 3.93566C12.2985 4.09358 12.2446 4.24797 12.1415 4.36775C12.0384 4.48753 11.8937 4.56381 11.7367 4.58123C11.5796 4.59865 11.4218 4.55592 11.2949 4.46165L11.2249 4.40081L10.6249 3.80081L10.6249 5.62581C10.6249 5.77684 10.5702 5.92277 10.4709 6.03659C10.3717 6.15041 10.2345 6.22444 10.0849 6.24498L9.99992 6.24998C9.84876 6.24995 9.70274 6.19513 9.5889 6.09569C9.47505 5.99625 9.40111 5.85893 9.38075 5.70915L9.37492 5.62498L9.37492 3.79998L8.77492 4.39998C8.66909 4.50583 8.5288 4.57018 8.37954 4.58135C8.23029 4.59251 8.08198 4.54974 7.96158 4.46081L7.89159 4.39998C7.78552 4.29411 7.72103 4.15365 7.70986 4.0042C7.69869 3.85476 7.7416 3.70627 7.83075 3.58581L7.89159 3.51581L9.55825 1.84915L9.64992 1.77415L9.72909 1.72831L9.80075 1.69831L9.88659 1.67665L9.96159 1.66748L10.0391 1.66748L10.1433 1.68248L10.1991 1.69915L10.2491 1.71748L10.3074 1.74665L10.3508 1.77331L10.3758 1.79248C10.399 1.81019 10.4212 1.8291 10.4424 1.84915L12.1083 3.51665ZM11.2499 9.99998C11.2499 9.66846 11.1182 9.35052 10.8838 9.1161C10.6494 8.88168 10.3314 8.74998 9.99992 8.74998C9.6684 8.74998 9.35045 8.88168 9.11604 9.1161C8.88161 9.35052 8.74992 9.66846 8.74992 9.99998C8.74992 10.3315 8.88161 10.6494 9.11604 10.8839C9.35045 11.1183 9.6684 11.25 9.99992 11.25C10.3314 11.25 10.6494 11.1183 10.8838 10.8839C11.1182 10.6494 11.2499 10.3315 11.2499 9.99998ZM18.3233 9.88665L18.3308 9.94248L18.3333 10.015L18.3299 10.065L18.3166 10.1433L18.3008 10.2L18.2824 10.2491L18.2524 10.3075L18.2258 10.3508L18.2033 10.3825L18.1508 10.4425L16.4841 12.1091C16.3729 12.2224 16.2228 12.2891 16.0642 12.2957C15.9056 12.3023 15.7504 12.2484 15.6302 12.1448C15.5099 12.0412 15.4336 11.8957 15.4167 11.7379C15.3998 11.5801 15.4435 11.4217 15.5391 11.295L15.5999 11.225L16.1999 10.625L14.3749 10.625C14.2239 10.625 14.078 10.5703 13.9641 10.471C13.8503 10.3717 13.7763 10.2346 13.7558 10.085L13.7499 10.0008C13.7497 9.84964 13.8043 9.70352 13.9036 9.58952C14.0029 9.47552 14.1401 9.40137 14.2899 9.38081L14.3749 9.37581L16.1999 9.37581L15.5999 8.77581C15.4939 8.66994 15.4294 8.52948 15.4182 8.38004C15.407 8.23059 15.4499 8.08211 15.5391 7.96165L15.5999 7.89165C15.7058 7.78592 15.8462 7.72172 15.9955 7.71071C16.1447 7.6997 16.293 7.74261 16.4133 7.83165L16.4841 7.89165L18.1508 9.55831L18.2258 9.64998L18.2716 9.72915L18.3008 9.80165L18.3233 9.88665Z" fill="black"/>
</svg>
