<svg width="149" height="125" viewBox="0 0 149 125" fill="none" xmlns="http://www.w3.org/2000/svg">
<g clip-path="url(#clip0_2128_794)">
<path d="M64.2899 63.6501C65.3199 81.0401 79.0899 94.2101 93.5699 102.1C110.38 111.25 129.42 115.47 147.93 119.7C149.39 120.03 149.69 122.24 148.35 122.93C140.42 127.08 131.55 127.09 122.81 127.51C112.05 128.03 101.28 128.55 90.5199 129.06C91.0599 128.12 91.5999 127.17 92.1499 126.23C103.59 141.49 114.42 157.17 124.63 173.27C125.38 174.45 124.57 175.7 123.46 176.15C117.68 178.51 110.46 173.43 105.3 171.11C98.5099 168.05 91.7599 164.91 85.1499 161.49C71.6499 154.51 58.6199 146.34 47.5599 135.85C28.0299 117.32 15.0899 89.7301 21.4499 62.6201C22.0199 60.2101 25.7299 61.2301 25.1599 63.6401C19.1299 89.4101 31.8099 115.56 50.3099 133.1C60.0999 142.38 71.4899 149.76 83.3399 156.12C89.1399 159.23 95.0599 162.11 101.03 164.88C104.15 166.32 107.28 167.73 110.42 169.13C113.9 170.68 118.57 173.94 122.42 172.37C122.03 173.33 121.64 174.29 121.25 175.25C111.06 159.14 100.27 143.43 88.8999 128.13C87.9899 126.91 89.2399 125.35 90.5299 125.3C99.9899 124.89 109.45 124.47 118.91 124.05C128.1 123.64 138.19 124.22 146.58 119.87L147 123.1C126.9 118.42 105.7 113.79 88.0399 102.59C74.3299 93.8901 62.5199 80.6501 62.3099 63.6401C62.2899 62.3501 64.2199 62.3701 64.2999 63.6401L64.2899 63.6501Z" fill="#2F414A"/>
<path d="M63.74 62.5601C75.72 61.2101 87.77 60.8801 99.81 60.3301C99.36 61.4101 98.91 62.5001 98.46 63.5801C76.92 45.5201 57.54 25.1101 40.47 2.80011C41.45 2.93011 42.43 3.05011 43.41 3.18011C25.15 18.8801 14.15 40.4501 3.56997 61.6501C3.01997 60.6801 2.45998 59.7201 1.90998 58.7501C10.44 59.7001 19 60.2201 27.58 60.3301C30.08 60.3601 30.09 64.2401 27.58 64.2201C18.99 64.1401 10.44 63.5901 1.90998 62.6101C0.429977 62.4401 -0.460022 61.1101 0.249977 59.7101C11.02 38.2801 22.29 16.4201 40.77 0.54011C41.77 -0.31989 42.95 -0.0798897 43.71 0.92011C60.59 23.0001 79.88 43.0401 101.16 60.9001C102.51 62.0301 101.33 64.0901 99.81 64.1501C87.78 64.6701 75.77 65.4301 63.74 65.1501C62.04 65.1101 62.13 62.7501 63.74 62.5701V62.5601Z" fill="#2F414A"/>
</g>
<defs>
<clipPath id="clip0_2128_794">
<rect width="149.2" height="176.76" fill="white" transform="matrix(-1 0 0 1 149.2 0)"/>
</clipPath>
</defs>
</svg>
