<svg width="25" height="24" viewBox="0 0 25 24" fill="none" xmlns="http://www.w3.org/2000/svg">
<path d="M11.0001 5.99996C11.0001 5.79146 11.0001 5.68647 11.0121 5.59947C11.0505 5.32502 11.1773 5.07055 11.3733 4.8746C11.5692 4.67865 11.8237 4.55187 12.0981 4.51347C12.1866 4.50147 12.2901 4.50146 12.4986 4.50146C12.7071 4.50146 12.8136 4.50147 12.8991 4.51347C13.1736 4.55187 13.428 4.67865 13.624 4.8746C13.8199 5.07055 13.9467 5.32502 13.9851 5.59947C13.9971 5.68647 13.9971 5.79146 13.9971 5.99996C13.9971 6.20846 13.9971 6.31347 13.9851 6.40047C13.9467 6.67491 13.8199 6.92937 13.624 7.12533C13.428 7.32128 13.1736 7.44806 12.8991 7.48647C12.8121 7.49847 12.7071 7.49847 12.4986 7.49847C12.2901 7.49847 12.1851 7.49847 12.0981 7.48647C11.8237 7.44806 11.5692 7.32128 11.3733 7.12533C11.1773 6.92937 11.0505 6.67491 11.0121 6.40047C11.0001 6.31347 11.0001 6.20846 11.0001 5.99996ZM11.0001 12C11.0001 11.7915 11.0001 11.6865 11.0121 11.5995C11.0505 11.325 11.1773 11.0706 11.3733 10.8746C11.5692 10.6786 11.8237 10.5519 12.0981 10.5135C12.1866 10.5015 12.2901 10.5015 12.4986 10.5015C12.7071 10.5015 12.8136 10.5015 12.8991 10.5135C13.1736 10.5519 13.428 10.6786 13.624 10.8746C13.8199 11.0706 13.9467 11.325 13.9851 11.5995C13.9971 11.6865 13.9971 11.7915 13.9971 12C13.9971 12.2085 13.9971 12.3135 13.9851 12.4005C13.9467 12.6749 13.8199 12.9294 13.624 13.1253C13.428 13.3213 13.1736 13.4481 12.8991 13.4865C12.8121 13.4985 12.7071 13.4985 12.4986 13.4985C12.2901 13.4985 12.1851 13.4985 12.0981 13.4865C11.8237 13.4481 11.5692 13.3213 11.3733 13.1253C11.1773 12.9294 11.0505 12.6749 11.0121 12.4005C11.0001 12.3135 11.0001 12.2085 11.0001 12ZM11.0001 18C11.0001 17.7915 11.0001 17.6865 11.0121 17.5995C11.0505 17.325 11.1773 17.0706 11.3733 16.8746C11.5692 16.6786 11.8237 16.5519 12.0981 16.5135C12.1866 16.5015 12.2901 16.5015 12.4986 16.5015C12.7071 16.5015 12.8136 16.5015 12.8991 16.5135C13.1736 16.5519 13.428 16.6786 13.624 16.8746C13.8199 17.0706 13.9467 17.325 13.9851 17.5995C13.9971 17.6865 13.9971 17.7915 13.9971 18C13.9971 18.2085 13.9971 18.3135 13.9851 18.402C13.9467 18.6764 13.8199 18.9309 13.624 19.1268C13.428 19.3228 13.1736 19.4496 12.8991 19.488C12.8121 19.5 12.7071 19.5 12.5001 19.5C12.2931 19.5 12.1866 19.5 12.0996 19.488C11.8252 19.4496 11.5707 19.3228 11.3748 19.1268C11.1788 18.9309 11.052 18.6764 11.0136 18.402C11.0001 18.315 11.0001 18.21 11.0001 18Z" fill="#1E1E1E" fill-opacity="0.7"/>
</svg>
