<svg width="36" height="36" viewBox="0 0 36 36" fill="none" xmlns="http://www.w3.org/2000/svg">
<g clip-path="url(#clip0_2041_819)">
<path d="M20.5 23.8333C20.5001 24.2538 20.3413 24.6588 20.0554 24.9671C19.7695 25.2754 19.3776 25.4643 18.9583 25.4958L18.8333 25.5H17.1667C16.7462 25.5001 16.3412 25.3413 16.0329 25.0554C15.7246 24.7695 15.5357 24.3776 15.5042 23.9583L15.5 23.8333H20.5ZM18 9.66666C19.5125 9.66664 20.9658 10.2541 22.0535 11.3051C23.1412 12.356 23.7781 13.7884 23.83 15.3L23.8333 15.5V18.6367L25.3517 21.6733C25.4179 21.8058 25.4511 21.9524 25.4483 22.1005C25.4455 22.2487 25.4069 22.3939 25.3357 22.5238C25.2645 22.6537 25.1629 22.7645 25.0396 22.8465C24.9162 22.9286 24.7748 22.9795 24.6275 22.995L24.5317 23H11.4683C11.3201 23 11.1741 22.9642 11.0428 22.8954C10.9116 22.8267 10.7989 22.7271 10.7145 22.6053C10.6301 22.4835 10.5765 22.343 10.5583 22.1959C10.5401 22.0488 10.5579 21.8996 10.61 21.7608L10.6483 21.6733L12.1667 18.6367V15.5C12.1667 13.9529 12.7812 12.4692 13.8752 11.3752C14.9692 10.2812 16.4529 9.66666 18 9.66666Z" fill="#2F414A"/>
</g>
<defs>
<clipPath id="clip0_2041_819">
<rect width="20" height="20" fill="white" transform="translate(8 8)"/>
</clipPath>
</defs>
</svg>
