<svg width="16" height="20" viewBox="0 0 16 20" fill="none" xmlns="http://www.w3.org/2000/svg">
<g clip-path="url(#clip0_2158_770)">
<path d="M8.39155 0C5.27362 0 3.25413 1.27746 1.66862 3.5557C1.38101 3.96898 1.46968 4.53562 1.87089 4.83984L3.55597 6.11754C3.96116 6.42477 4.53769 6.35293 4.85491 5.95551C5.83339 4.72969 6.55921 4.02391 8.08761 4.02391C9.28933 4.02391 10.7757 4.79731 10.7757 5.96262C10.7757 6.84355 10.0485 7.29598 8.86194 7.96121C7.47823 8.73699 5.64714 9.70246 5.64714 12.1177V12.5C5.64714 13.0178 6.06687 13.4375 6.58464 13.4375H9.41554C9.93331 13.4375 10.353 13.0178 10.353 12.5V12.2745C10.353 10.6003 15.2463 10.5305 15.2463 6C15.2464 2.58813 11.7072 0 8.39155 0ZM8.00011 14.5882C6.50808 14.5882 5.29421 15.8021 5.29421 17.2941C5.29421 18.7862 6.50808 20 8.00011 20C9.49214 20 10.706 18.7861 10.706 17.2941C10.706 15.8021 9.49214 14.5882 8.00011 14.5882Z" fill="#2F414A"/>
</g>
<defs>
<clipPath id="clip0_2158_770">
<rect width="15" height="20" fill="white" transform="translate(0.500122)"/>
</clipPath>
</defs>
</svg>
