<svg width="57" height="56" viewBox="0 0 57 56" fill="none" xmlns="http://www.w3.org/2000/svg">
<path d="M8.08334 11.6667C8.08334 9.96486 8.75938 8.33276 9.96273 7.1294C11.1661 5.92604 12.7982 5.25 14.5 5.25H37.8333C39.5351 5.25 41.1672 5.92604 42.3706 7.1294C43.574 8.33276 44.25 9.96486 44.25 11.6667V24.5C44.25 24.9641 44.0656 25.4092 43.7374 25.7374C43.4093 26.0656 42.9641 26.25 42.5 26.25C42.0359 26.25 41.5908 26.0656 41.2626 25.7374C40.9344 25.4092 40.75 24.9641 40.75 24.5V11.6667C40.75 10.0567 39.4433 8.75 37.8333 8.75H14.5C12.89 8.75 11.5833 10.0567 11.5833 11.6667V44.3333C11.5833 45.9433 12.89 47.25 14.5 47.25H32C32.4641 47.25 32.9092 47.4344 33.2374 47.7626C33.5656 48.0907 33.75 48.5359 33.75 49C33.75 49.4641 33.5656 49.9092 33.2374 50.2374C32.9092 50.5656 32.4641 50.75 32 50.75H14.5C12.7982 50.75 11.1661 50.074 9.96273 48.8706C8.75938 47.6672 8.08334 46.0351 8.08334 44.3333V11.6667Z" fill="#2C29FF"/>
<path d="M42.5 30.9167C42.9641 30.9167 43.4092 31.1011 43.7374 31.4293C44.0656 31.7575 44.25 32.2026 44.25 32.6667V33.6421C46.6463 33.7307 48.9167 35.4971 48.9167 38.1104C48.9167 38.5745 48.7323 39.0197 48.4041 39.3479C48.0759 39.676 47.6308 39.8604 47.1667 39.8604C46.7025 39.8604 46.2574 39.676 45.9292 39.3479C45.601 39.0197 45.4167 38.5745 45.4167 38.1104C45.4167 37.7791 45.0387 37.1397 44.061 37.1397H40.547C40.2681 37.1323 39.9957 37.225 39.7793 37.4011C39.6207 37.5411 39.5833 37.6741 39.5833 37.7604C39.5798 37.8778 39.5939 37.995 39.6253 38.1081C39.6563 38.131 39.6891 38.1513 39.7233 38.1687C39.8167 38.2154 39.9567 38.2714 40.1737 38.3367L45.8157 39.9724C46.4597 40.1637 47.2857 40.4811 47.9343 41.1694C48.6343 41.9161 48.9167 42.8727 48.9167 43.9064C48.9167 46.3961 46.686 48.0271 44.453 48.0271H44.25V49.0001C44.25 49.4642 44.0656 49.9093 43.7374 50.2375C43.4092 50.5657 42.9641 50.7501 42.5 50.7501C42.0359 50.7501 41.5907 50.5657 41.2626 50.2375C40.9344 49.9093 40.75 49.4642 40.75 49.0001V48.0247C38.3537 47.9361 36.0833 46.1697 36.0833 43.5564C36.0833 43.0923 36.2677 42.6472 36.5959 42.319C36.9241 41.9908 37.3692 41.8064 37.8333 41.8064C38.2975 41.8064 38.7426 41.9908 39.0708 42.319C39.399 42.6472 39.5833 43.0923 39.5833 43.5564C39.5833 43.8877 39.9613 44.5271 40.939 44.5271H44.453C44.7319 44.5346 45.0043 44.4418 45.2207 44.2657C45.3793 44.1257 45.4167 43.9927 45.4167 43.9064C45.4202 43.7891 45.4061 43.6719 45.3747 43.5587C45.3437 43.5359 45.3109 43.5156 45.2767 43.4981C45.1833 43.4514 45.0433 43.3954 44.8263 43.3301L39.1843 41.6944C38.5403 41.5031 37.7143 41.1857 37.0657 40.4974C36.3657 39.7507 36.0833 38.7941 36.0833 37.7604C36.0833 35.2707 38.314 33.6397 40.547 33.6397H40.75V32.6667C40.75 32.2026 40.9344 31.7575 41.2626 31.4293C41.5907 31.1011 42.0359 30.9167 42.5 30.9167ZM15.0833 25.6667C15.0833 25.2026 15.2677 24.7575 15.5959 24.4293C15.9241 24.1011 16.3692 23.9167 16.8333 23.9167H18C18.4641 23.9167 18.9092 24.1011 19.2374 24.4293C19.5656 24.7575 19.75 25.2026 19.75 25.6667C19.75 26.1309 19.5656 26.576 19.2374 26.9042C18.9092 27.2324 18.4641 27.4167 18 27.4167H16.8333C16.3692 27.4167 15.9241 27.2324 15.5959 26.9042C15.2677 26.576 15.0833 26.1309 15.0833 25.6667ZM22.0833 25.6667C22.0833 25.2026 22.2677 24.7575 22.5959 24.4293C22.9241 24.1011 23.3692 23.9167 23.8333 23.9167H35.5C35.9641 23.9167 36.4092 24.1011 36.7374 24.4293C37.0656 24.7575 37.25 25.2026 37.25 25.6667C37.25 26.1309 37.0656 26.576 36.7374 26.9042C36.4092 27.2324 35.9641 27.4167 35.5 27.4167H23.8333C23.3692 27.4167 22.9241 27.2324 22.5959 26.9042C22.2677 26.576 22.0833 26.1309 22.0833 25.6667ZM15.0833 32.6667C15.0833 32.2026 15.2677 31.7575 15.5959 31.4293C15.9241 31.1011 16.3692 30.9167 16.8333 30.9167H18C18.4641 30.9167 18.9092 31.1011 19.2374 31.4293C19.5656 31.7575 19.75 32.2026 19.75 32.6667C19.75 33.1309 19.5656 33.576 19.2374 33.9042C18.9092 34.2324 18.4641 34.4167 18 34.4167H16.8333C16.3692 34.4167 15.9241 34.2324 15.5959 33.9042C15.2677 33.576 15.0833 33.1309 15.0833 32.6667ZM22.0833 32.6667C22.0833 32.2026 22.2677 31.7575 22.5959 31.4293C22.9241 31.1011 23.3692 30.9167 23.8333 30.9167H32C32.4641 30.9167 32.9092 31.1011 33.2374 31.4293C33.5656 31.7575 33.75 32.2026 33.75 32.6667C33.75 33.1309 33.5656 33.576 33.2374 33.9042C32.9092 34.2324 32.4641 34.4167 32 34.4167H23.8333C23.3692 34.4167 22.9241 34.2324 22.5959 33.9042C22.2677 33.576 22.0833 33.1309 22.0833 32.6667ZM15.0833 39.6667C15.0833 39.2026 15.2677 38.7575 15.5959 38.4293C15.9241 38.1011 16.3692 37.9167 16.8333 37.9167H18C18.4641 37.9167 18.9092 38.1011 19.2374 38.4293C19.5656 38.7575 19.75 39.2026 19.75 39.6667C19.75 40.1309 19.5656 40.576 19.2374 40.9042C18.9092 41.2324 18.4641 41.4167 18 41.4167H16.8333C16.3692 41.4167 15.9241 41.2324 15.5959 40.9042C15.2677 40.576 15.0833 40.1309 15.0833 39.6667ZM22.0833 39.6667C22.0833 39.2026 22.2677 38.7575 22.5959 38.4293C22.9241 38.1011 23.3692 37.9167 23.8333 37.9167H28.5C28.9641 37.9167 29.4092 38.1011 29.7374 38.4293C30.0656 38.7575 30.25 39.2026 30.25 39.6667C30.25 40.1309 30.0656 40.576 29.7374 40.9042C29.4092 41.2324 28.9641 41.4167 28.5 41.4167H23.8333C23.3692 41.4167 22.9241 41.2324 22.5959 40.9042C22.2677 40.576 22.0833 40.1309 22.0833 39.6667ZM14.5 15.1667C14.5 14.0794 14.5 13.5357 14.6773 13.1064C14.9147 12.5358 15.3686 12.0827 15.9397 11.8464C16.369 11.6667 16.9127 11.6667 18 11.6667H34.3333C35.4207 11.6667 35.9643 11.6667 36.3937 11.8441C36.9643 12.0814 37.4174 12.5354 37.6537 13.1064C37.8333 13.5357 37.8333 14.0794 37.8333 15.1667C37.8333 16.2541 37.8333 16.7977 37.656 17.2271C37.4187 17.7977 36.9647 18.2508 36.3937 18.4871C35.9643 18.6667 35.4207 18.6667 34.3333 18.6667H18C16.9127 18.6667 16.369 18.6667 15.9397 18.4894C15.3691 18.2521 14.9159 17.7981 14.6797 17.2271C14.5 16.7977 14.5 16.2541 14.5 15.1667Z" fill="#2C29FF"/>
</svg>
