<svg width="20" height="20" viewBox="0 0 20 20" fill="none" xmlns="http://www.w3.org/2000/svg">
<g clip-path="url(#clip0_2158_779)">
<path d="M4.13344 2.9551L8.01261 6.83343C8.60854 6.45949 9.29782 6.26114 10.0014 6.26114C10.7049 6.26114 11.3942 6.45949 11.9901 6.83343L15.8668 2.95676C14.2198 1.58525 12.1442 0.834229 10.0009 0.834229C7.85765 0.834229 5.78212 1.58525 4.13511 2.95676M17.0451 4.13343L13.1668 8.0126C13.5405 8.60844 13.7388 9.29756 13.7388 10.0009C13.7388 10.7043 13.5405 11.3934 13.1668 11.9893L17.0443 15.8668C18.4158 14.2198 19.1668 12.1442 19.1668 10.0009C19.1668 7.85764 18.4158 5.78211 17.0443 4.1351M15.8668 17.0451L11.9893 13.1668C11.3933 13.5407 10.7041 13.7391 10.0005 13.7391C9.29699 13.7391 8.6077 13.5407 8.01177 13.1668L4.13344 17.0459C5.78051 18.4177 7.85621 19.1688 9.99969 19.1688C12.1432 19.1688 14.2189 18.4177 15.8659 17.0459M2.95594 15.8668L6.83344 11.9876C6.45967 11.3918 6.26141 10.7026 6.26141 9.99926C6.26141 9.29589 6.45967 8.60677 6.83344 8.01093L2.95594 4.13343C1.58443 5.78044 0.833405 7.85597 0.833405 9.99926C0.833405 12.1426 1.58443 14.2181 2.95594 15.8651" fill="#2F414A"/>
</g>
<defs>
<clipPath id="clip0_2158_779">
<rect width="20" height="20" fill="white"/>
</clipPath>
</defs>
</svg>
