<svg width="57" height="56" viewBox="0 0 57 56" fill="none" xmlns="http://www.w3.org/2000/svg">
<path d="M16.8333 16.3333H14.5C13.2623 16.3333 12.0753 16.8249 11.2002 17.7001C10.325 18.5753 9.83334 19.7622 9.83334 20.9999V41.9999C9.83334 43.2376 10.325 44.4246 11.2002 45.2997C12.0753 46.1749 13.2623 46.6666 14.5 46.6666H35.5C36.7377 46.6666 37.9247 46.1749 38.7998 45.2997C39.675 44.4246 40.1667 43.2376 40.1667 41.9999V39.6666" stroke="#2C29FF" stroke-width="4.66667" stroke-linecap="round" stroke-linejoin="round"/>
<path d="M37.8333 11.6667L44.8333 18.6667M48.065 15.365C48.984 14.446 49.5002 13.1996 49.5002 11.9C49.5002 10.6004 48.984 9.35398 48.065 8.43501C47.146 7.51603 45.8996 6.99976 44.6 6.99976C43.3004 6.99976 42.054 7.51603 41.135 8.43501L21.5 28V35H28.5L48.065 15.365Z" stroke="#2C29FF" stroke-width="4.66667" stroke-linecap="round" stroke-linejoin="round"/>
</svg>
